<svg width="16" height="15" viewBox="0 0 16 15" fill="none" xmlns="http://www.w3.org/2000/svg">
<path d="M14 2.25H2V12.75L8.969 5.7795C9.1096 5.6389 9.3004 5.5599 9.4992 5.5599C9.6981 5.5599 9.8889 5.6389 10.0295 5.7795L14 9.7575V2.25ZM0.5 1.49475C0.50137 1.29778 0.58018 1.10926 0.71938 0.96991C0.85859 0.83056 1.04704 0.75157 1.244 0.75H14.756C15.167 0.75 15.5 1.08375 15.5 1.49475V13.5052C15.4986 13.7022 15.4198 13.8907 15.2806 14.0301C15.1414 14.1694 14.953 14.2484 14.756 14.25H1.244C1.04661 14.2498 0.85737 14.1712 0.71787 14.0316C0.57836 13.892 0.5 13.7026 0.5 13.5052V1.49475ZM5 6.75C4.60218 6.75 4.22064 6.592 3.93934 6.3107C3.65804 6.0294 3.5 5.6478 3.5 5.25C3.5 4.85218 3.65804 4.47064 3.93934 4.18934C4.22064 3.90804 4.60218 3.75 5 3.75C5.39782 3.75 5.77936 3.90804 6.0607 4.18934C6.342 4.47064 6.5 4.85218 6.5 5.25C6.5 5.6478 6.342 6.0294 6.0607 6.3107C5.77936 6.592 5.39782 6.75 5 6.75Z" fill="white"/>
</svg>
