<svg width="28" height="28" viewBox="0 0 28 28" fill="none" xmlns="http://www.w3.org/2000/svg">
<path d="M13.6868 0.744141C21.0468 0.744141 27.0202 6.71747 27.0202 14.0774C27.0202 21.4374 21.0468 27.4108 13.6868 27.4108C6.32685 27.4108 0.353516 21.4374 0.353516 14.0774C0.353516 6.71747 6.32685 0.744141 13.6868 0.744141ZM13.6868 24.7441C19.5895 24.7441 24.3535 19.9801 24.3535 14.0774C24.3535 8.17482 19.5895 3.4108 13.6868 3.4108C12.2856 3.40905 10.8977 3.68375 9.6028 4.21918C8.3079 4.75461 7.1313 5.54024 6.14046 6.53108C5.14962 7.52192 4.36399 8.69852 3.82856 9.99342C3.29313 11.2883 3.01843 12.6762 3.02018 14.0774C3.02018 19.9801 7.7842 24.7441 13.6868 24.7441ZM13.6868 22.0774C9.2602 22.0774 5.68685 18.5041 5.68685 14.0774C5.68685 9.65082 9.2602 6.07747 13.6868 6.07747C18.1135 6.07747 21.6868 9.65082 21.6868 14.0774C21.6868 18.5041 18.1135 22.0774 13.6868 22.0774ZM13.6868 11.4108C12.2202 11.4108 11.0202 12.6108 11.0202 14.0774C11.0202 15.5441 12.2202 16.7441 13.6868 16.7441C15.1535 16.7441 16.3535 15.5441 16.3535 14.0774C16.3535 12.6108 15.1535 11.4108 13.6868 11.4108Z" fill="#1355FF"/>
</svg>
